<svg xmlns="http://www.w3.org/2000/svg" viewBox="0 0 24 24" fill="none" stroke="currentColor" stroke-width="2" stroke-linecap="round" stroke-linejoin="round" aria-hidden="true">
  <title>Settings</title>
  <circle cx="12" cy="12" r="3"></circle>
  <path d="M19.4 15a1.65 1.65 0 0 0 .33 1.82l.06.06a2 2 0 1 1-2.83 2.83l-.06-.06a1.65 1.65 0 0 0-1.82-.33 1.65 1.65 0 0 0-1 1.51V21a2 2 0 1 1-4 0v-.09a1.65 1.65 0 0 0-1-1.51 1.65 1.65 0 0 0-1.82.33l-.06.06a2 2 0 1 1-2.83-2.83l.06-.06a1.65 1.65 0 0 0 .33-1.82 1.65 1.65 0 0 0-1.51-1H3a2 2 0 1 1 0-4h.09c.7 0 1.28-.4 1.51-1a1.65 1.65 0 0 0-.33-1.82L4.31 4.9A2 2 0 1 1 7.14 2.07l.06.06A1.65 1.65 0 0 0 9 .99H9.09a1.65 1.65 0 0 0 1 1.51c.2.07.4.1.6.1s.4-.03.6-.1A1.65 1.65 0 0 0 12.91 1h.09a1.65 1.65 0 0 0 1.51 1c.2.07.4.1.6.1s.4-.03.6-.1A1.65 1.65 0 0 0 18 1.06V1a2 2 0 1 1 4 0v.09c0 .7.4 1.28 1 1.51a1.65 1.65 0 0 0 .33 1.82l.06.06a2 2 0 1 1-2.83 2.83l-.06-.06a1.65 1.65 0 0 0-1.82-.33z"></path>
</svg>